<?xml version="1.0" encoding="utf-8"?>
<!-- Generator: Adobe Illustrator 22.1.0, SVG Export Plug-In . SVG Version: 6.00 Build 0)  -->
<svg version="1.1" id="Layer_1" xmlns="http://www.w3.org/2000/svg" xmlns:xlink="http://www.w3.org/1999/xlink" x="0px" y="0px"
	 viewBox="0 0 500 500" style="enable-background:new 0 0 500 500;" xml:space="preserve">
<style type="text/css">
	.st0{clip-path:url(#SVGID_2_);fill:#00CEC8;}
	.st1{fill:#A3C0FF;}
	.st2{fill:#D8E3FF;}
	.st3{fill-rule:evenodd;clip-rule:evenodd;fill:#F59493;}
	.st4{fill-rule:evenodd;clip-rule:evenodd;fill:#FFFFFF;}
	.st5{opacity:0.31;fill:#2E4787;}
	.st6{fill:#F59493;}
	.st7{fill:#436AE6;}
	.st8{fill:#D67474;}
	.st9{fill:#0F1B61;}
	.st10{fill:#142585;}
	.st11{fill:#4D85FF;}
	.st12{fill:#FFFFFF;}
	.st13{fill:none;stroke:#9EB9DB;stroke-width:2;stroke-linecap:round;stroke-linejoin:round;stroke-miterlimit:10;}
	.st14{fill:none;stroke:#142585;stroke-width:5;stroke-linecap:round;stroke-linejoin:round;stroke-miterlimit:10;}
	.st15{fill:#BFD4FF;}
	.st16{fill:none;stroke:#223A7A;stroke-width:5.4704;stroke-linecap:round;stroke-linejoin:round;stroke-miterlimit:10;}
	.st17{fill:#FBFBFF;}
	
		.st18{fill-rule:evenodd;clip-rule:evenodd;fill:none;stroke:#0065FF;stroke-width:0.9997;stroke-linecap:round;stroke-linejoin:round;stroke-miterlimit:10;}
	.st19{fill:#3570F0;}
	.st20{fill:#2D52B8;}
	.st21{fill:#FFACAB;}
	.st22{fill:#E37B7B;}
	.st23{fill:#1ADBCF;}
	.st24{opacity:0.18;}
	.st25{fill:none;stroke:#FFFFFF;stroke-width:0.9459;stroke-linecap:round;stroke-linejoin:round;stroke-miterlimit:10;}
	.st26{opacity:0.28;fill:#FFFFFF;}
	.st27{clip-path:url(#SVGID_4_);fill:#00CEC8;}
	.st28{clip-path:url(#SVGID_6_);fill:#00CEC8;}
	.st29{clip-path:url(#SVGID_8_);fill:#00CEC8;}
	.st30{fill:#173885;}
	.st31{fill:#385BD6;}
	.st32{fill:#C2D5FF;}
	.st33{fill:#C0CAE3;}
	.st34{fill:#4A74FF;}
	.st35{fill:#122175;}
	.st36{fill:#E6EEFF;}
	.st37{fill:#183180;}
	.st38{fill:#99B2E8;}
	.st39{fill:#8EA3D4;}
	.st40{fill:#C9E4FF;}
	.st41{fill:none;stroke:#E38A78;stroke-width:0.8295;stroke-linecap:round;stroke-linejoin:round;stroke-miterlimit:10;}
	.st42{fill:none;stroke:#9EB9DB;stroke-linecap:round;stroke-linejoin:round;stroke-miterlimit:10;}
	.st43{fill:none;stroke:#FFFFFF;stroke-width:1.5636;stroke-linecap:round;stroke-linejoin:round;stroke-miterlimit:10;}
	.st44{fill:#A3BEF7;}
	.st45{fill:none;stroke:#142585;stroke-width:2;stroke-linecap:round;stroke-linejoin:round;stroke-miterlimit:10;}
	.st46{fill:none;stroke:#223A7A;stroke-width:2.3829;stroke-linecap:round;stroke-linejoin:round;stroke-miterlimit:10;}
	.st47{fill:none;stroke:#142585;stroke-linecap:round;stroke-linejoin:round;stroke-miterlimit:10;}
	.st48{fill:#F0F5FF;}
	.st49{opacity:0.28;}
	.st50{opacity:0.4;fill:#A8B2E5;}
	.st51{opacity:0.31;fill:#476DCF;}
	.st52{fill:url(#SVGID_9_);}
	.st53{fill:#3B6BD9;}
	.st54{opacity:0.27;fill:#FCFEFF;}
	.st55{fill:#2F6AD6;}
	.st56{fill:#2B60C2;}
	.st57{fill:#6094F5;}
	.st58{fill:#4C87F5;}
	.st59{fill:#85B0FF;}
	.st60{fill:#B8D1FF;}
	.st61{fill:#99B8FF;}
	.st62{fill:#356DE6;}
	.st63{fill:#CFDEFF;}
	.st64{fill:#3071FF;}
	.st65{fill:#FFFFFF;stroke:#35519C;stroke-width:0.5746;stroke-miterlimit:10;}
	.st66{fill:#0E2E82;}
	.st67{fill:#FFFFFF;stroke:#35519C;stroke-width:0.5911;stroke-miterlimit:10;}
	.st68{fill:#3E62D4;}
	.st69{fill:none;stroke:#B8CCFF;stroke-width:3.6594;stroke-linecap:round;stroke-linejoin:round;stroke-miterlimit:10;}
	.st70{fill:#3072FF;}
	.st71{fill:none;stroke:#FFFFFF;stroke-width:2.0446;stroke-linecap:round;stroke-linejoin:round;stroke-miterlimit:10;}
	.st72{fill:url(#SVGID_10_);}
	.st73{fill:#ED9845;}
	.st74{fill:#AA5509;}
	.st75{opacity:0.37;fill:#AA5509;}
	.st76{fill:#FFA664;}
	.st77{fill:#D37B33;}
	.st78{opacity:0.18;fill:#FFE0C9;}
	.st79{fill:#EBF5FF;}
	.st80{fill:#EB984E;}
	.st81{fill:#FFAC61;}
	.st82{fill:#214BB8;}
	.st83{fill:#3864D6;}
	.st84{fill:#E1EAF4;}
	.st85{fill:#A1B8ED;}
	.st86{fill:#A6BEF5;}
	.st87{fill:#DBE7FF;}
	.st88{fill:#2F81EC;}
	.st89{fill:none;stroke:#2C4482;stroke-width:1.5916;stroke-linecap:round;stroke-linejoin:round;stroke-miterlimit:10;}
	.st90{fill-rule:evenodd;clip-rule:evenodd;fill:#A1BFFF;}
	.st91{fill-rule:evenodd;clip-rule:evenodd;fill:#F0F5FF;}
	
		.st92{fill-rule:evenodd;clip-rule:evenodd;fill:none;stroke:#223A7A;stroke-width:1.7967;stroke-linecap:round;stroke-miterlimit:10;}
	.st93{fill-rule:evenodd;clip-rule:evenodd;fill:#63FFF5;}
	
		.st94{fill-rule:evenodd;clip-rule:evenodd;fill:none;stroke:#FCFEFF;stroke-width:3.9635;stroke-linecap:round;stroke-linejoin:round;stroke-miterlimit:10;}
	.st95{fill:#2651DE;}
	.st96{fill:#A1BFFF;}
	.st97{fill:#2D69ED;}
	.st98{opacity:0.73;fill:#3171FF;}
	.st99{fill:#223A7A;}
	.st100{fill:none;stroke:#FFFFFF;stroke-width:1.2752;stroke-linecap:round;stroke-linejoin:round;stroke-miterlimit:10;}
	.st101{fill:#63FFF5;}
	
		.st102{fill-rule:evenodd;clip-rule:evenodd;fill:none;stroke:#FFFFFF;stroke-width:1.247;stroke-linecap:round;stroke-miterlimit:10;}
	.st103{fill:none;stroke:#223A7A;stroke-width:2.1314;stroke-linecap:round;stroke-miterlimit:10;}
	.st104{fill:#2B41E3;}
	.st105{fill:#F6F7FA;}
</style>
<g>
	<defs>
		<rect id="SVGID_1_" x="1.4" y="0" width="500" height="500"/>
	</defs>
	<clipPath id="SVGID_2_">
		<use xlink:href="#SVGID_1_"  style="overflow:visible;"/>
	</clipPath>
	<path class="st0" d="M-11.8-10.3c0,0,198.6-49.4,247.6,100.6s250.3,265.4,252.4,419.8l-488.6,0.8c-6.3,0-11.4-6.7-11.4-15V-10.3z"
		/>
</g>
<g>
	<path class="st1" d="M365.7,159.6c0,1-0.8,1.8-1.8,1.8c-1,0-1.8-0.8-1.8-1.8c0-1,0.8-1.8,1.8-1.8
		C364.9,157.8,365.7,158.6,365.7,159.6z"/>
	<path class="st1" d="M384.5,159.6c0,1-0.8,1.8-1.8,1.8c-1,0-1.8-0.8-1.8-1.8c0-1,0.8-1.8,1.8-1.8
		C383.7,157.8,384.5,158.6,384.5,159.6z"/>
	<path class="st1" d="M403.3,159.6c0,1-0.8,1.8-1.8,1.8c-1,0-1.8-0.8-1.8-1.8c0-1,0.8-1.8,1.8-1.8
		C402.5,157.8,403.3,158.6,403.3,159.6z"/>
	<circle class="st1" cx="420.3" cy="159.6" r="1.8"/>
	<path class="st1" d="M440.9,159.6c0,1-0.8,1.8-1.8,1.8c-1,0-1.8-0.8-1.8-1.8c0-1,0.8-1.8,1.8-1.8
		C440.1,157.8,440.9,158.6,440.9,159.6z"/>
	<path class="st1" d="M365.7,178.8c0,1-0.8,1.8-1.8,1.8c-1,0-1.8-0.8-1.8-1.8c0-1,0.8-1.8,1.8-1.8
		C364.9,176.9,365.7,177.8,365.7,178.8z"/>
	<path class="st1" d="M384.5,178.8c0,1-0.8,1.8-1.8,1.8c-1,0-1.8-0.8-1.8-1.8c0-1,0.8-1.8,1.8-1.8
		C383.7,176.9,384.5,177.8,384.5,178.8z"/>
	<path class="st1" d="M403.3,178.8c0,1-0.8,1.8-1.8,1.8c-1,0-1.8-0.8-1.8-1.8c0-1,0.8-1.8,1.8-1.8
		C402.5,176.9,403.3,177.8,403.3,178.8z"/>
	<path class="st1" d="M422.1,178.8c0,1-0.8,1.8-1.8,1.8s-1.8-0.8-1.8-1.8c0-1,0.8-1.8,1.8-1.8S422.1,177.8,422.1,178.8z"/>
	<path class="st1" d="M440.9,178.8c0,1-0.8,1.8-1.8,1.8c-1,0-1.8-0.8-1.8-1.8c0-1,0.8-1.8,1.8-1.8
		C440.1,176.9,440.9,177.8,440.9,178.8z"/>
	<path class="st1" d="M365.7,198c0,1-0.8,1.8-1.8,1.8c-1,0-1.8-0.8-1.8-1.8c0-1,0.8-1.8,1.8-1.8C364.9,196.1,365.7,197,365.7,198z"
		/>
	<path class="st1" d="M384.5,198c0,1-0.8,1.8-1.8,1.8c-1,0-1.8-0.8-1.8-1.8c0-1,0.8-1.8,1.8-1.8C383.7,196.1,384.5,197,384.5,198z"
		/>
	<path class="st1" d="M403.3,198c0,1-0.8,1.8-1.8,1.8c-1,0-1.8-0.8-1.8-1.8c0-1,0.8-1.8,1.8-1.8C402.5,196.1,403.3,197,403.3,198z"
		/>
	<path class="st1" d="M422.1,198c0,1-0.8,1.8-1.8,1.8s-1.8-0.8-1.8-1.8c0-1,0.8-1.8,1.8-1.8S422.1,197,422.1,198z"/>
	<path class="st1" d="M440.9,198c0,1-0.8,1.8-1.8,1.8c-1,0-1.8-0.8-1.8-1.8c0-1,0.8-1.8,1.8-1.8C440.1,196.1,440.9,197,440.9,198z"
		/>
	<path class="st1" d="M365.7,217.1c0,1-0.8,1.8-1.8,1.8c-1,0-1.8-0.8-1.8-1.8c0-1,0.8-1.8,1.8-1.8
		C364.9,215.3,365.7,216.1,365.7,217.1z"/>
	<path class="st1" d="M384.5,217.1c0,1-0.8,1.8-1.8,1.8c-1,0-1.8-0.8-1.8-1.8c0-1,0.8-1.8,1.8-1.8
		C383.7,215.3,384.5,216.1,384.5,217.1z"/>
	<path class="st1" d="M403.3,217.1c0,1-0.8,1.8-1.8,1.8c-1,0-1.8-0.8-1.8-1.8c0-1,0.8-1.8,1.8-1.8
		C402.5,215.3,403.3,216.1,403.3,217.1z"/>
	<circle class="st1" cx="420.3" cy="217.1" r="1.8"/>
	<path class="st1" d="M440.9,217.1c0,1-0.8,1.8-1.8,1.8c-1,0-1.8-0.8-1.8-1.8c0-1,0.8-1.8,1.8-1.8
		C440.1,215.3,440.9,216.1,440.9,217.1z"/>
	<path class="st1" d="M365.7,236.3c0,1-0.8,1.8-1.8,1.8c-1,0-1.8-0.8-1.8-1.8c0-1,0.8-1.8,1.8-1.8
		C364.9,234.5,365.7,235.3,365.7,236.3z"/>
	<path class="st1" d="M384.5,236.3c0,1-0.8,1.8-1.8,1.8c-1,0-1.8-0.8-1.8-1.8c0-1,0.8-1.8,1.8-1.8
		C383.7,234.5,384.5,235.3,384.5,236.3z"/>
	<path class="st1" d="M403.3,236.3c0,1-0.8,1.8-1.8,1.8c-1,0-1.8-0.8-1.8-1.8c0-1,0.8-1.8,1.8-1.8
		C402.5,234.5,403.3,235.3,403.3,236.3z"/>
	<path class="st1" d="M422.1,236.3c0,1-0.8,1.8-1.8,1.8s-1.8-0.8-1.8-1.8c0-1,0.8-1.8,1.8-1.8S422.1,235.3,422.1,236.3z"/>
	<path class="st1" d="M440.9,236.3c0,1-0.8,1.8-1.8,1.8c-1,0-1.8-0.8-1.8-1.8c0-1,0.8-1.8,1.8-1.8
		C440.1,234.5,440.9,235.3,440.9,236.3z"/>
</g>
<path class="st2" d="M403.9,305.1H222.5c-7.1,0-12.9-5.8-12.9-12.9v-87.9c0-7.1,5.8-12.9,12.9-12.9h181.4c7.1,0,12.9,5.8,12.9,12.9
	v87.9C416.7,299.3,410.9,305.1,403.9,305.1z"/>
<path class="st3" d="M250.2,468.5l53-100.6l22.9,13.7c0,0-33.3,110.2-43.3,114.9C272.8,501.2,239.2,507.3,250.2,468.5z"/>
<path class="st4" d="M295.2,381l30.5,26.9c0,0-25.4,69.9-45.3,94l-25.7,0.1l-13.8-18.4L295.2,381z"/>
<path class="st5" d="M219.6,489.5c0-24.4-0.7-81.5-1.8-94.2c-2.9-33.1-36.5-47.3-36.5-47.3l-30.5-11.9c-0.1-0.2-0.2-0.4-0.3-0.6
	l1-0.6l-2-1.4c-3.5-6.4-9-11.4-18-12.9l0.1,0.2L126,317c0.3,2.3,0.2,4.4-0.3,6.2c-0.8-4.6-1-9.7-0.9-15.2
	c9.6-6.9,19.2-16.1,19.2-30.2V276c4.1,0.6,8.5-3.4,10.4-9.9c2.1-7.2,0.1-14.6-4.3-16.6c-1.4-0.6-2.8-0.6-4.3-0.1
	c0.6-6.7,0.9-14.8-0.4-21.8c1-0.3,1.8-1.1,1.9-2.3c0.7-10.1-0.7-43.1-47.1-43.9c-47.9-0.8-45.5,35.2-44.1,44.2
	c0.2,1.1,1.2,1.9,2.3,1.8c-1.4,7.3-1.1,15.8-0.4,22.6c-1.9-1.2-3.9-1.5-5.8-0.6c-4.4,2-6.4,9.4-4.3,16.6c2.1,7.2,7.3,11.5,11.8,9.5
	c0.1,0,0.1-0.1,0.2-0.1v0.7c0,13.4,8.3,23,17.2,30.1c0,4.7-0.2,9.2-0.7,13.2c-0.2-1-0.3-2.1-0.2-3.2l-3.1,2.3c0,0-6.4,2.7-8.4,6.3
	l-10,7.4v0l-2.4,1.7l-24.3,11c-10.5,3.4-22.7,8.2-30.6,14.1v132c0,6.1,5,11.1,11.1,11.1l197.9-0.2
	C210.3,498.8,214.4,495.1,219.6,489.5z"/>
<path class="st6" d="M133.5,356.6h3.8c11.6,0,35.9-9.5,35.9-18.8c-22.4-4.3-17.7-34.6-14.8-65.1c0-9.4-9.5-17.1-21.2-17.1h-3.8
	c-11.6,0-25.5,10.9-25.5,20.3c-0.7,28.2,5.3,52.7-15.1,61.8C92.9,347,121.9,356.6,133.5,356.6z"/>
<path class="st7" d="M46.9,501.8c0.6-68.8,4.1-149.9,4.1-149.9L85.6,328L98,341.2l53.4-13.2c0,0,52,10,63.6,17.6
	c11.6,7.6,10.8,75.3,10.8,75.3s-14.6,54.2-16.1,81.1L46.9,501.8z"/>
<path class="st8" d="M157.2,293c0,19-42.8,18.9-50.9,29c1.9-8.1,2-19.6,1.7-31.7L157.2,293z"/>
<path class="st6" d="M146,310.3c11.3-7.7,29.1-17.7,29.1-37l0-41.6c0-24.7-18.4-45-41-45h-2.3c-22.5,0-41,20.2-41,45v40.1
	c0,19.4,17.5,30.9,28.7,38.4C122.7,312.3,142.8,312.5,146,310.3z"/>
<path class="st9" d="M117.3,253.9c0,2.4-1.4,4.3-3.1,4.3s-3.1-1.9-3.1-4.3c0-2.4,1.4-4.3,3.1-4.3
	C115.9,249.6,117.3,251.6,117.3,253.9z"/>
<path class="st9" d="M154.7,253.9c0,2.4-1.4,4.3-3.1,4.3s-3.1-1.9-3.1-4.3c0-2.4,1.4-4.3,3.1-4.3
	C153.3,249.6,154.7,251.6,154.7,253.9z"/>
<path class="st10" d="M104.9,239.6c3.3-0.6,9.5-0.2,12.8,0c7.4,0.6,6.7-7.2,0.3-7.2c-6.2,0-8.6-0.4-12.9,1.5
	C100,236.4,103.6,239.9,104.9,239.6z"/>
<path class="st10" d="M161.8,239.6c-3.3-0.6-9.5-0.2-12.8,0c-7.4,0.6-6.7-7.2-0.3-7.2c6.2,0,8.6-0.4,12.9,1.5
	C166.8,236.4,163.1,239.9,161.8,239.6z"/>
<path class="st6" d="M79,261.8c2.1,7.2,7.3,11.5,11.8,9.5c4.4-2,6.4-9.4,4.3-16.6c-2.1-7.2-7.3-11.5-11.8-9.5
	C78.9,247.1,76.9,254.5,79,261.8z"/>
<g>
	<path class="st8" d="M88.5,257.2c0,0,0.1,0,0.1,0c0.6-0.1,1-0.6,1-1.2c0-0.2-0.4-3.9-3-5.7c-1.4-1-3.1-1.2-5.1-0.7
		c-0.6,0.2-0.9,0.7-0.8,1.3c0.2,0.6,0.7,0.9,1.3,0.8c1.4-0.4,2.4-0.2,3.3,0.4c1.8,1.2,2.1,4.1,2.1,4.1
		C87.5,256.8,87.9,257.2,88.5,257.2z"/>
</g>
<path class="st8" d="M85.6,258.9c-0.1,1.6,0.7,2.9,1.8,3c1.1,0.1,2.1-1.2,2.2-2.8c0.1-1.6-0.7-2.9-1.8-3
	C86.6,256,85.7,257.3,85.6,258.9z"/>
<ellipse transform="matrix(0.1834 -0.983 0.983 0.1834 -108.8762 385.3403)" class="st6" cx="177.5" cy="258.2" rx="13.7" ry="8.6"/>
<g>
	<path class="st8" d="M176,257.2c0.5,0,1-0.4,1.1-1c0,0,0.3-2.9,2.1-4.2c0.9-0.6,1.9-0.7,3.3-0.4c0.6,0.1,1.2-0.2,1.3-0.8
		c0.1-0.6-0.2-1.2-0.8-1.3c-2-0.5-3.7-0.3-5.1,0.7c-2.6,1.8-3,5.6-3,5.7c-0.1,0.6,0.4,1.1,1,1.2C176,257.2,176,257.2,176,257.2z"/>
</g>
<path class="st8" d="M179,258.9c0.1,1.6-0.7,2.9-1.8,3c-1.1,0.1-2.1-1.2-2.2-2.8c-0.1-1.6,0.7-2.9,1.8-3
	C177.9,256,178.9,257.3,179,258.9z"/>
<g>
	<path class="st8" d="M133.2,274.5c4.7,0,8.2-3.3,8.3-3.4c0.5-0.5,0.6-1.3,0-1.9c-0.5-0.5-1.3-0.6-1.9-0.1c0,0-3.4,3.1-7.3,2.6
		c-4-0.5-5.8-2.4-5.9-2.5c-0.5-0.6-1.3-0.6-1.9-0.2c-0.6,0.5-0.6,1.3-0.2,1.9c0.1,0.1,2.4,2.8,7.6,3.5
		C132.4,274.5,132.8,274.5,133.2,274.5z"/>
</g>
<path class="st10" d="M95.9,210.4c0,0,6.3,34.1-4.9,47.8C90.9,258.2,83,220.7,95.9,210.4z"/>
<path class="st10" d="M170.1,210.4c0,0-6.3,34.1,4.9,47.8C175.1,258.2,183,220.7,170.1,210.4z"/>
<path class="st10" d="M175.1,223.3c1.6,0.5,3.2-0.6,3.3-2.2c0.7-10.1-0.7-43.1-47.1-43.9c-47.9-0.8-45.5,35.2-44.1,44.2
	c0.2,1.2,1.3,2,2.5,1.8c4.5-0.8,14.8-3.8,19.1-15.8c16.9,9.2,34,8.8,51.1-0.9C159.9,206.5,164.6,220,175.1,223.3z"/>
<path class="st11" d="M157.2,312.6l25.4,18l-11.6,7l-14.6,19l-17.8-25.5C138.6,331.1,159.5,328.6,157.2,312.6z"/>
<path class="st11" d="M107.2,311.9l-21.6,16l5.1,9.6l29.6,20.3l18.3-26.7C138.6,331.1,106.3,330,107.2,311.9z"/>
<path class="st12" d="M24.5,358C38.3,343.9,79,335.1,79,335.1l1.6,61.6l-5.3,105.3H11.8C11.8,502.1,10.7,372.2,24.5,358z"/>
<path class="st12" d="M40.1,349.1l51.4-23.2c0,0,19.1,13.6,29.3,56.2c12.5,52.5,15,119.8,12.3,119.8l-92.9,0.1l1.5-81.2L40.1,349.1z
	"/>
<path class="st12" d="M225.9,465.9c-4.3,25.7-7.4,36.1-7.4,36.1l-26.5,0c2-39.8-1.4-99.4-1.4-99.4s-0.8-65.9-11.8-72.1l33.7,13.1
	C212.5,343.7,232,429.3,225.9,465.9z"/>
<path class="st12" d="M249,390.9c1.1,12.6,17,86.7,17,111.1l-47.4,0c-10.8-20.8-6-53.5-6-53.5V343.7
	C212.5,343.7,246.1,357.8,249,390.9z"/>
<path class="st13" d="M75.9,469c0,0,0-59.2,0-76"/>
<path class="st13" d="M229.8,471.7c0,0-8.7-69.6-17.4-84.1"/>
<g>
	<g>
		<path class="st14" d="M104.5,311.4L104.5,311.4c-6.2,4.5-11.8,10.3-10.9,18.6c0.7,6.4,3.7,12.2,4.1,18.8
			c0.7,12.9-3.7,25.3-5.1,37.9"/>
	</g>
	<g>
		<path class="st14" d="M96.3,341.8c7.7,12.5,21.4,22.5,19.2,38.9"/>
	</g>
	<path class="st15" d="M98,392.8l13,43.2c3.2,9.3,5.7,14.3,17.3,11.1c0.4,1.6,0.7,3.3,1,4.9l-1.8,0.5c-8.5,2.6-17.6-2.2-20.1-10.7
		l-15.6-51.8C89.2,381.6,95.4,384.5,98,392.8z"/>
	<path class="st10" d="M133.8,445.4l-6.3,1.1c-1.8,0.3-2.9,2-2.6,3.8l0.2,0.9c0.3,1.8,2,2.9,3.8,2.6l6.3-1.1c1.8-0.3,2.9-2,2.6-3.8
		l-0.2-0.9C137.3,446.3,135.6,445.1,133.8,445.4z"/>
	<path class="st15" d="M112.9,389.2l-6.4,44.7c-1.7,9.6-3.5,15-15.5,13.5c-0.1,1.7-0.2,3.4-0.2,5l1.9,0.3c8.8,1.3,17-4.8,18.3-13.6
		l7.7-53.6C119.8,376.8,114.1,380.5,112.9,389.2z"/>
	<path class="st10" d="M85.2,446.6l6.4,0.2c1.8,0.1,3.2,1.6,3.2,3.4l0,0.9c-0.1,1.8-1.6,3.2-3.4,3.2L85,454
		c-1.8-0.1-3.2-1.6-3.2-3.4l0-0.9C81.9,447.9,83.4,446.5,85.2,446.6z"/>
	<path class="st10" d="M94.9,389.6l-3.2,0.4c-1.7,0.2-3.2-0.9-3.5-2.6l-0.2-1.7c-0.2-1.7,0.9-3.2,2.6-3.5l3.2-0.4
		c1.7-0.2,3.2,0.9,3.5,2.6l0.2,1.7C97.7,387.8,96.5,389.3,94.9,389.6z"/>
	<path class="st10" d="M117.4,386.7l-3.3-0.2c-1.7-0.1-3-1.6-2.9-3.3l0.1-1.7c0.1-1.7,1.6-3,3.3-2.9l3.3,0.2c1.7,0.1,3,1.6,2.9,3.3
		l-0.1,1.7C120.6,385.5,119.1,386.8,117.4,386.7z"/>
</g>
<g>
	<g>
		<path class="st14" d="M196.6,413.6c0.2,3.3-5.5,4.2-5.7,1l0,0c-1.5-21.4-1.2-43.2-4.3-64.5c-2-14-9.8-35-27.7-38.1"/>
	</g>
	<g>
		
			<ellipse transform="matrix(0.9982 -5.969526e-02 5.969526e-02 0.9982 -24.8718 12.1571)" class="st10" cx="191" cy="422.4" rx="15.4" ry="15.4"/>
		
			<ellipse transform="matrix(0.9951 -9.851386e-02 9.851386e-02 0.9951 -40.364 20.8208)" class="st17" cx="190.7" cy="419.1" rx="11.9" ry="11.9"/>
		
			<ellipse transform="matrix(0.9978 -6.697492e-02 6.697492e-02 0.9978 -27.3336 13.6485)" class="st10" cx="189.9" cy="414.5" rx="11.9" ry="11.9"/>
	</g>
</g>
<line class="st18" x1="324.9" y1="245" x2="399.4" y2="244.4"/>
<line class="st18" x1="324.7" y1="218.2" x2="399.2" y2="217.6"/>
<line class="st18" x1="325.1" y1="269.1" x2="377.2" y2="268.7"/>
<path class="st12" d="M118.5,282.7h29.1c0,0-2.2,12.5-14.2,12.5C121.5,295.2,118.5,282.7,118.5,282.7z"/>
<g>
	
		<ellipse transform="matrix(0.9196 -0.3929 0.3929 0.9196 -75.8343 125.8221)" class="st19" cx="269.4" cy="248.2" rx="44.6" ry="44.6"/>
	<path class="st20" d="M280.5,210c0,0,18.2,13.2,5.7,45l-24,0.5L280.5,210z"/>
	<path class="st21" d="M253,263.8c-0.2-0.1-0.2-0.2,0.1-0.4c0.9-0.6,1.7-1.2,2.5-2c2.3-2.6,2.3-6,2.2-8.3c0-0.5,19.3-1.9,19.3-1.9
		c-0.1,0.5-1,0.3-1,2.5c0,0.2,1,5.1,1.3,6.9c1.3,1.8,3.4,2.4,4.2,3.1c0.3,0.3,3.8,3.6,3.5,3.2c-0.4-0.4,2.7,5.1-1,1.8
		c0.8,1,9.4,5.6,9.4,5.6l-26.7,2.9l-20.4-7.8L253,263.8z"/>
	<path class="st21" d="M280.6,244.8c3.9,0.3,4.7-3.7,5.1-6.3c0.2-2,0.4-7.9-3.3-6.7c-3.8,1.2-2,12.3-2,12.3c0.3,0,0.6,0.1,0.9,0.1
		c-0.2,0-0.5,0-0.8,0C280.1,244.2,280.1,244.8,280.6,244.8z"/>
	<path class="st21" d="M251.4,216.2c1.8-4.7,5.5-7.3,10-8c1.3-0.1,2.6-0.1,3.9-0.1c0,0,0,0,0,0c0.1,0,0.1,0,0.2,0c0,0,0,0,0,0
		c3.9,0,7.7,0.3,10.9,3.2c3,2.7,4.5,7,5.1,11.1c0.8,5,0.5,10.1,0.1,15c-0.3,3.7-0.1,7.8-1.4,11.3c-1.7,4.6-5.2,6.7-9.2,8.3
		c-4.1,1.7-8.1,0.5-12-1.4c-4.4-2.1-7-6.7-7.6-11.7c-0.5-4.1-1.1-8.3-1.4-12.4C249.7,226.4,249.6,220.9,251.4,216.2z"/>
	<path class="st20" d="M266.8,218L266.8,218c-4-0.1-8-0.3-12-0.6c-1.4-0.1-2.7-0.2-4.1-0.7c-0.6-0.2-1.2-0.6-1.5-1.2
		c-0.4-0.9-0.2-2,0.2-2.9c1.9-5.3,6-8.8,10.4-10c4.4-1.2,9.1-0.4,13.5,1.3c3.2,1.2,7.6,3.8,7.9,8.9c0.2,3.9-4.9,4.5-6.9,4.8
		C271.8,218.1,269.3,218.1,266.8,218z"/>
	<path class="st20" d="M277.7,217.1L277.7,217.1c0-0.2,0-0.4,0.1-0.6c0.1-0.2,0.3-0.3,0.4-0.4c0.5-0.4,1.1-0.7,1.6-1.1
		c0.3-0.2,0.6-0.4,1-0.4c0.7,0,1.2,0.6,1.5,1.2c1,1.8,1.4,3.9,1.4,5.9c0,2-0.3,4.1-0.7,6.1c-0.3,1.4-0.5,3.5-1.2,4.7
		c-0.8-0.3-1.3-2.4-1.5-3.2c-0.5-1.3-0.9-2.6-1.2-4C278.4,222.6,277.9,219.9,277.7,217.1z"/>
	<path class="st11" d="M304.2,276.1c-1-1.9-2-3.3-2.9-4c-1.9-1.5-4.3-2.3-6.3-3c-2.1-0.7-4.4-1.8-6.7-2.9c-2.3-1.1-4.6-2.2-6.8-2.9
		l-0.3-0.1l-0.1,0.4c0.9,8-9.5,10.4-15.8,10.2c-5.9-0.2-10.9-4.5-12.2-10l-0.1-0.4l-0.4,0.1c-2.1,0.7-4.8,1.8-7.5,2.9
		c-2.6,1.1-5.3,2.2-7.4,2.9c-2,0.7-4.2,1.4-6,2.9c7.4,11.7,20.1,19.6,34.8,20.6c4.1,0,8.4-0.4,13-1.1
		C289.4,289.3,298.1,283.7,304.2,276.1z"/>
	<g>
		<path class="st20" d="M271.8,232.6L271.8,232.6c-0.5,0.1-0.9-0.1-1-0.5c0-0.4,0.4-1,1.1-1.2c1.3-0.3,1.7-0.4,3.2-0.5
			c1.3-0.1,3,0.5,3.7,1.1c0.1,0.1,0.2,0.2,0.3,0.2c0.4,0.3,0.3,0.8-0.1,1C278.8,232.8,276.1,230.3,271.8,232.6z M271.8,231.8
			L271.8,231.8L271.8,231.8z"/>
	</g>
	<g>
		<path class="st20" d="M254.1,232.7c-0.4-0.3-0.5-0.7-0.1-1c0.1-0.1,0.2-0.2,0.3-0.2c0.7-0.6,2.4-1.1,3.7-1.1
			c1.5,0.1,1.9,0.2,3.2,0.5c0.7,0.2,1.1,0.7,1.1,1.2c0,0.4-0.4,0.6-1,0.5h0C257,230.3,254.2,232.8,254.1,232.7z M261.3,231.8
			L261.3,231.8L261.3,231.8z"/>
	</g>
	<path class="st22" d="M266.6,257.2c0,0,4.4,0.9,10.1-3.5v3.4C276.8,257.1,272,259.3,266.6,257.2z"/>
	<path class="st22" d="M254.8,243.3c0,0,2.2-20.5,7.3-25.4c0,0-7.9-6.3-4.8-7.9l-3.9,5.5c0,0-2,12.3-2,12.6
		C251.4,228.3,254.8,243.3,254.8,243.3z"/>
	<path class="st20" d="M262.1,217.9c0,0-14.1,7.8-4.1,39.6l-14.7,1.7c0,0-6.5-36.6,8.8-51.5C266,194.3,262.1,217.9,262.1,217.9z"/>
	<path class="st12" d="M260.9,245.8h11.2c0,0-0.9,4.8-5.4,4.8C262.1,250.6,260.9,245.8,260.9,245.8z"/>
	<ellipse class="st9" cx="273.7" cy="235.8" rx="0.9" ry="1.7"/>
	<path class="st9" d="M260.8,235.8c0,0.9-0.4,1.7-0.9,1.7c-0.5,0-0.9-0.8-0.9-1.7s0.4-1.7,0.9-1.7
		C260.4,234,260.8,234.8,260.8,235.8z"/>
	<g>
		<path class="st8" d="M266.3,243.3c1.3,0,2.2-0.9,2.3-0.9c0.1-0.1,0.2-0.4,0-0.5c-0.1-0.1-0.4-0.2-0.5,0c0,0-0.9,0.8-2,0.7
			c-1.1-0.1-1.6-0.7-1.6-0.7c-0.1-0.2-0.4-0.2-0.5,0c-0.2,0.1-0.2,0.4,0,0.5c0,0,0.7,0.8,2.1,0.9
			C266.1,243.3,266.2,243.3,266.3,243.3z"/>
	</g>
	<g>
		<path class="st23" d="M247.5,223.3c0.1,8.7-6.9,15.8-15.6,15.8c-8.7,0.1-15.8-6.9-15.8-15.6c-0.1-8.7,6.9-15.8,15.6-15.8
			C240.3,207.7,247.4,214.6,247.5,223.3z"/>
		<path class="st12" d="M231.9,232L231.9,232c-1.4,0-2.6-1.1-2.6-2.5l-0.1-12.1c0-1.4,1.1-2.6,2.5-2.6l0,0c1.4,0,2.6,1.1,2.6,2.5
			l0.1,12.1C234.4,230.9,233.3,232,231.9,232z"/>
		<path class="st12" d="M223.2,223.5L223.2,223.5c0-1.4,1.1-2.6,2.5-2.6l12.1-0.1c1.4,0,2.6,1.1,2.6,2.5l0,0c0,1.4-1.1,2.6-2.5,2.6
			l-12.1,0.1C224.4,226.1,223.2,224.9,223.2,223.5z"/>
	</g>
</g>
<path class="st6" d="M361.5,349.9L339.7,378c-12,9.8-20.4,19-31.2,10.1c-4.8-4-6.7-11.3-6.4-15.2l0.8-12.2l10.6-33c0,0,5.2,1,4,11.7
	c-0.5,4.7-3.4,6.5-2.2,9.6c2.1-0.9,4.2-1.9,6.3-3.3l28.1-31c1.9-2.7,6.5-0.4,4.6,2.3l-15.9,24.1l20.8-25.8c2.2-2.5,8.4-2.4,5.2,4.5
	l-6.4,10.9l1.7-1.6c2.3-2.4,5.9,1,3.5,3.4l-12.3,19.4l7.7-7.3C360.9,342.2,365,344.7,361.5,349.9z"/>
<g class="st24">
	<path class="st12" d="M31.4,314.5l-16.6-5.2c-1.1-0.3-1.7-1.5-1.4-2.6l5.2-16.6c0.3-1.1,1.5-1.7,2.6-1.4l16.6,5.2
		c1.1,0.3,1.7,1.5,1.4,2.6L34,313.2C33.6,314.2,32.5,314.9,31.4,314.5z M18,306l12.7,4l4-12.7l-12.7-4L18,306z"/>
</g>
<path class="st25" d="M341.5,479.7c3.1,0,63.7,0,63.7,0"/>
<path class="st25" d="M82.6,145.3c3.1,0,63.7,0,63.7,0"/>
<path class="st26" d="M272.8,336.5c0,2.2-1.8,4-4,4s-4-1.8-4-4c0-2.2,1.8-4,4-4S272.8,334.3,272.8,336.5z"/>
<path class="st26" d="M24,181.5c0,2.2-1.8,4-4,4s-4-1.8-4-4c0-2.2,1.8-4,4-4S24,179.3,24,181.5z"/>
</svg>
